<svg xmlns="http://www.w3.org/2000/svg" viewBox="0 0 1000 1000" width="1000" height="1000">
	<style>
		tspan { white-space:pre }
	</style>
	<rect width="1000" height="1000" id="Color Fill 1" style="fill: #0b172a" />
	<path id="G " fill="#ffffff" d="M745.51 458.77Q749.04 477.1 749.04 505.31Q749.04 533.16 735.64 568.41Q722.59 603.31 698.97 635.75Q675.71 667.83 643.63 695.68Q611.9 723.18 574.88 743.62Q495.21 787.34 414.12 787.34Q265.35 787.34 220.93 682.99Q206.13 648.09 206.13 607.9Q206.13 567.71 216.7 533.16Q227.63 498.26 247.02 465.12Q266.76 431.63 293.55 400.25Q320.35 368.88 352.43 341.38Q384.86 313.53 421.17 290.61Q457.84 267.7 496.26 251.13Q577.7 216.58 651.38 216.58Q786.05 216.58 786.05 279.68Q786.05 297.66 759.26 318.11Q729.65 277.21 677.12 261Q659.14 255.71 633.05 255.71Q606.96 255.71 572.77 266.29Q538.57 276.86 506.49 295.55Q474.41 314.23 446.2 340.32Q418 366.05 397.2 397.08Q351.72 463.36 351.72 530.69Q351.72 598.03 384.86 632.22Q418.35 666.07 480.4 666.07Q524.82 666.07 573.47 643.86Q653.5 606.84 683.46 539.86Q694.04 516.59 695.45 490.5Q618.24 531.04 550.56 531.04Q483.22 531.04 459.25 497.9Q450.79 486.27 450.79 472.17Q450.79 458.07 460.66 446.79Q470.88 435.5 487.45 425.99Q504.37 416.47 525.53 409.06Q546.68 401.66 569.24 396.37Q615.42 385.44 651.73 385.44Q708.85 385.44 732.11 423.17Q751.5 409.77 772.3 391.08Q788.52 404.83 788.52 415.41Q788.52 418.94 778.3 430.57Q768.42 441.85 745.51 458.77ZM690.87 448.9Q681 423.87 647.5 423.87Q595.33 423.87 550.56 441.5Q528.7 449.96 528.7 459.48Q528.7 479.92 577.35 479.92Q631.29 479.92 690.87 448.9Z" />
</svg>